<svg width="20" height="20" viewBox="0 0 20 20" fill="none" xmlns="http://www.w3.org/2000/svg">
<path d="M5.39584 17.6249C5.00695 17.6249 4.67362 17.4826 4.39584 17.1978C4.11806 16.9131 3.97917 16.5833 3.97917 16.2083V4.41659H3.04167V2.99992H7.16667V2.27075H12.8333V2.99992H16.9583V4.41659H16.0208V16.2083C16.0208 16.5833 15.8819 16.9131 15.6042 17.1978C15.3264 17.4826 14.9931 17.6249 14.6042 17.6249H5.39584ZM14.6042 4.41659H5.39584V16.2083H14.6042V4.41659ZM7.58334 14.4583H8.91667V6.14575H7.58334V14.4583ZM11.0833 14.4583H12.4167V6.14575H11.0833V14.4583ZM5.39584 4.41659V16.2083V4.41659Z" fill="#078A93"/>
</svg>
