<svg width="20" height="20" viewBox="0 0 20 20" fill="none" xmlns="http://www.w3.org/2000/svg">
<path d="M3.79166 16.2501H4.64583L13.8333 7.06258L12.9792 6.20841L3.79166 15.3959V16.2501ZM16.5625 6.16675L13.875 3.47925L14.6458 2.70841C14.9097 2.43064 15.2396 2.29175 15.6354 2.29175C16.0312 2.29175 16.3611 2.42369 16.625 2.68758L17.4167 3.47925C17.6806 3.72925 17.8056 4.0348 17.7917 4.39591C17.7778 4.75703 17.6528 5.06258 17.4167 5.31258L16.5625 6.16675ZM15.6875 7.04175L5.16666 17.5626H2.47916V14.8751L13 4.35425L15.6875 7.04175ZM13.4167 6.62508L12.9792 6.20841L13.8333 7.06258L13.4167 6.62508Z" fill="#078A93"/>
</svg>
