<svg width="37" height="37" viewBox="0 0 37 37" fill="none" xmlns="http://www.w3.org/2000/svg">
<path d="M6.9375 32.375C6.32083 32.375 5.78125 32.1437 5.31875 31.6812C4.85625 31.2187 4.625 30.6792 4.625 30.0625V6.9375C4.625 6.32083 4.85625 5.78125 5.31875 5.31875C5.78125 4.85625 6.32083 4.625 6.9375 4.625H30.0625C30.6792 4.625 31.2187 4.85625 31.6812 5.31875C32.1437 5.78125 32.375 6.32083 32.375 6.9375V30.0625C32.375 30.6792 32.1437 31.2187 31.6812 31.6812C31.2187 32.1437 30.6792 32.375 30.0625 32.375H6.9375ZM6.9375 30.0625H30.0625V24.8208H24.4354C23.7674 25.8486 22.9002 26.6387 21.8339 27.1911C20.7675 27.7436 19.6562 28.0198 18.5 28.0198C17.3438 28.0198 16.2325 27.7436 15.1661 27.1911C14.0998 26.6387 13.2326 25.8486 12.5646 24.8208H6.9375V30.0625ZM18.5 25.7073C19.5535 25.7073 20.5042 25.4054 21.3521 24.8016C22.2 24.1977 22.9194 23.4333 23.5104 22.5083H30.0625V6.9375H6.9375V22.5083H13.4896C14.0806 23.4333 14.8 24.1977 15.6479 24.8016C16.4958 25.4054 17.4465 25.7073 18.5 25.7073ZM6.9375 30.0625H30.0625H6.9375Z" fill="#84D3D9"/>
</svg>
