<svg width="38" height="38" viewBox="0 0 38 38" fill="none" xmlns="http://www.w3.org/2000/svg">
<path d="M33.25 18.9998L26.5604 28.4603C26.2174 28.9353 25.8083 29.3245 25.3333 29.628C24.8583 29.9314 24.3306 30.0832 23.75 30.0832H7.125C6.46528 30.0832 5.90451 29.8523 5.44271 29.3905C4.9809 28.9287 4.75 28.3679 4.75 27.7082V10.2915C4.75 9.63178 4.9809 9.07102 5.44271 8.60921C5.90451 8.14741 6.46528 7.9165 7.125 7.9165H23.75C24.3306 7.9165 24.8583 8.06824 25.3333 8.37171C25.8083 8.67518 26.2174 9.06442 26.5604 9.53942L33.25 18.9998ZM30.2812 18.9998L24.1854 10.2915H7.125V27.7082H24.1854L30.2812 18.9998ZM7.125 18.9998V27.7082V10.2915V18.9998Z" fill="#5CAF4F"/>
</svg>
