<svg width="24" height="24" viewBox="0 0 24 24" fill="none" xmlns="http://www.w3.org/2000/svg">
<path d="M22.9 22.975L16.325 16.4C15.825 16.8333 15.2417 17.1708 14.575 17.4125C13.9083 17.6542 13.2 17.775 12.45 17.775C10.65 17.775 9.125 17.15 7.875 15.9C6.625 14.65 6 13.1417 6 11.375C6 9.60834 6.625 8.10001 7.875 6.85001C9.125 5.60001 10.6417 4.97501 12.425 4.97501C14.1917 4.97501 15.6958 5.60001 16.9375 6.85001C18.1792 8.10001 18.8 9.60834 18.8 11.375C18.8 12.0917 18.6833 12.7833 18.45 13.45C18.2167 14.1167 17.8667 14.7417 17.4 15.325L24 21.875L22.9 22.975ZM12.425 16.275C13.775 16.275 14.925 15.7958 15.875 14.8375C16.825 13.8792 17.3 12.725 17.3 11.375C17.3 10.025 16.825 8.87084 15.875 7.91251C14.925 6.95417 13.775 6.47501 12.425 6.47501C11.0583 6.47501 9.89583 6.95417 8.9375 7.91251C7.97917 8.87084 7.5 10.025 7.5 11.375C7.5 12.725 7.97917 13.8792 8.9375 14.8375C9.89583 15.7958 11.0583 16.275 12.425 16.275Z" fill="#D9D9D9" fill-opacity="0.8"/>
</svg>
