<svg width="38" height="38" viewBox="0 0 38 38" fill="none" xmlns="http://www.w3.org/2000/svg">
<path d="M13.9729 25.729C12.891 25.729 11.9806 25.3596 11.2417 24.6207C10.5028 23.8818 10.1333 22.9714 10.1333 21.8894C10.1333 20.8075 10.5028 19.8971 11.2417 19.1582C11.9806 18.4193 12.891 18.0498 13.9729 18.0498C15.0549 18.0498 15.9653 18.4193 16.7042 19.1582C17.4431 19.8971 17.8125 20.8075 17.8125 21.8894C17.8125 22.9714 17.4431 23.8818 16.7042 24.6207C15.9653 25.3596 15.0549 25.729 13.9729 25.729ZM7.125 34.8332C6.49167 34.8332 5.9375 34.5957 5.4625 34.1207C4.9875 33.6457 4.75 33.0915 4.75 32.4582V7.9165C4.75 7.28317 4.9875 6.729 5.4625 6.254C5.9375 5.779 6.49167 5.5415 7.125 5.5415H9.69792V3.1665H12.2708V5.5415H25.7292V3.1665H28.3021V5.5415H30.875C31.5083 5.5415 32.0625 5.779 32.5375 6.254C33.0125 6.729 33.25 7.28317 33.25 7.9165V32.4582C33.25 33.0915 33.0125 33.6457 32.5375 34.1207C32.0625 34.5957 31.5083 34.8332 30.875 34.8332H7.125ZM7.125 32.4582H30.875V15.4373H7.125V32.4582ZM7.125 13.0623H30.875V7.9165H7.125V13.0623Z" fill="#C97676"/>
</svg>
