<svg width="38" height="38" viewBox="0 0 38 38" fill="none" xmlns="http://www.w3.org/2000/svg">
<path d="M5.54166 33.25C4.90833 33.25 4.35416 33.0125 3.87916 32.5375C3.40416 32.0625 3.16666 31.5083 3.16666 30.875V22.3646C3.16666 21.7313 3.40416 21.1771 3.87916 20.7021C4.35416 20.2271 4.90833 19.9896 5.54166 19.9896H13.8937C13.8937 21.4146 14.3885 22.6087 15.3781 23.5719C16.3677 24.5351 17.575 25.0167 19 25.0167C20.425 25.0167 21.6323 24.5351 22.6219 23.5719C23.6115 22.6087 24.1062 21.4146 24.1062 19.9896H32.4583C33.0917 19.9896 33.6458 20.2271 34.1208 20.7021C34.5958 21.1771 34.8333 21.7313 34.8333 22.3646V30.875C34.8333 31.5083 34.5958 32.0625 34.1208 32.5375C33.6458 33.0125 33.0917 33.25 32.4583 33.25H5.54166ZM5.54166 30.875H32.4583V22.3646H25.9667C25.4917 23.8687 24.6274 25.0826 23.374 26.0062C22.1205 26.9299 20.6625 27.3917 19 27.3917C17.3375 27.3917 15.8531 26.9299 14.5469 26.0062C13.2406 25.0826 12.4028 23.8687 12.0333 22.3646H5.54166V30.875ZM28.2229 16.8229L26.5208 15.1208L31.8646 9.77708L33.5667 11.4792L28.2229 16.8229ZM9.77708 16.8229L4.43333 11.4792L6.13541 9.77708L11.4792 15.1208L9.77708 16.8229ZM17.8125 12.1521V4.75H20.1875V12.1521H17.8125ZM5.54166 30.875H32.4583H5.54166Z" fill="#D3CE54"/>
</svg>
